<svg width="24" height="24" viewBox="0 0 24 24" fill="none" xmlns="http://www.w3.org/2000/svg">
<g clip-path="url(#clip0_476_4)">
<path d="M11.6804 0.319147C4.72705 0.68248 0.137055 6.13581 0.427054 13.0125C0.553721 16.0225 1.76372 18.6125 2.05039 21.4691C2.12372 22.2091 1.91039 23.1225 2.76372 23.4458C3.81372 23.8425 5.42372 23.1758 6.30372 22.5658C6.60372 22.3625 6.89039 22.1258 7.11039 21.8325C8.02039 22.4358 8.88372 23.0191 9.96705 23.2791C14.7371 24.4225 19.9637 21.8058 22.2871 17.6025C26.6537 9.70581 20.7504 -0.154187 11.6804 0.319147ZM8.98039 16.7991C8.60372 17.0925 8.24039 17.4925 7.82372 17.7225C7.22039 18.0458 7.03372 17.7091 6.80705 17.1758C6.09372 15.4791 6.00705 12.5891 6.42372 10.8125C6.98372 8.39581 8.85372 6.26915 11.4237 6.04248C14.0237 5.81248 16.4371 7.13248 17.5271 9.51581C19.9404 14.8191 13.7637 20.0558 8.98039 16.8025V16.7991Z" fill="#086D8F"/>
</g>
<defs>
<clipPath id="clip0_476_4">
<rect width="24" height="24" fill="white"/>
</clipPath>
</defs>
</svg>
